<svg width="104" height="84" viewBox="0 0 104 84" fill="none" xmlns="http://www.w3.org/2000/svg">
<path d="M31.2115 47.8823C32.3688 50.2374 33.9813 52.2618 35.6178 53.916C39.0199 57.4379 43.1637 60.1066 47.6037 61.7391C45.5119 64.1269 42.9589 66.0642 40.0797 67.2265C34.5421 69.536 28.3622 69.2574 22.4865 67.3832L27.9625 61.5932L-8.88442e-07 61.5366L19.4781 83.4994L19.4722 74.3682C26.857 76.6581 35.0113 76.9999 42.4319 73.5803C46.9078 71.5647 50.8527 68.1081 53.714 63.7612C53.8054 63.6197 53.8631 63.4587 53.9506 63.315C56.1159 63.5958 58.3032 63.6328 60.4705 63.3803C69.3963 62.3943 77.7336 58.2063 84.331 51.7764C90.7833 45.1832 95.1577 36.644 98.1939 27.8197C101.238 18.9562 103.169 9.67046 104 0.295451C102.873 9.6291 100.65 18.806 97.3628 27.4562C94.0899 36.0715 89.5028 44.2581 83.1419 50.3114C76.7434 56.1624 68.5075 59.8845 60.2776 60.4483C58.6889 60.568 57.1101 60.4853 55.5433 60.3003C57.132 56.626 57.8876 52.536 57.8359 48.6768C57.7822 43.5158 56.792 38.1568 53.6941 33.6511C50.6141 29.0212 44.7643 26.8402 39.8073 28.242C34.8761 29.5393 30.5076 33.971 29.766 39.7893C29.4379 42.6691 30.1139 45.4857 31.2115 47.8823ZM40.7875 33.022C44.2374 32.2776 47.8006 33.7577 49.7492 36.8726C51.8012 40.0113 52.5866 44.4104 52.4673 48.5897C52.3659 52.3989 51.4015 55.8838 49.6497 58.892C45.3131 57.3073 41.3145 54.6409 38.0913 51.082C36.6219 49.4865 35.4527 47.8365 34.6117 46.0147C33.862 44.1862 33.4882 42.2642 33.7487 40.4271C34.3214 36.7528 37.3735 33.7838 40.7875 33.022Z" fill="#004773"/>
</svg>
